<svg xmlns="http://www.w3.org/2000/svg" viewBox="0 0 800 1000" width="800" height="1000" role="img" aria-label="Illustration der Koje [Platzhalter]">
<defs>
  <linearGradient id="wall" x1="0" y1="0" x2="0" y2="1"><stop offset="0" stop-color="#f4f0ea"/><stop offset="1" stop-color="#e8e1d6"/></linearGradient>
  <linearGradient id="floor" x1="0" y1="0" x2="0" y2="1"><stop offset="0" stop-color="#d2b48c"/><stop offset="1" stop-color="#dcc29f"/></linearGradient>
  <linearGradient id="led" x1="0" y1="0" x2="0" y2="1"><stop offset="0" stop-color="#ffe3b3" stop-opacity=".85"/><stop offset="1" stop-color="#ffe3b3" stop-opacity="0"/></linearGradient>
  <linearGradient id="shelfGlow" x1="0" y1="0" x2="0" y2="1"><stop offset="0" stop-color="#ffd59a" stop-opacity=".7"/><stop offset="1" stop-color="#ffd59a" stop-opacity="0"/></linearGradient>
  <linearGradient id="cone" x1="0" y1="0" x2="0" y2="1"><stop offset="0" stop-color="#ffe0a8" stop-opacity=".55"/><stop offset="1" stop-color="#ffe0a8" stop-opacity="0"/></linearGradient>
  <linearGradient id="glass" x1="0" y1="0" x2="1" y2="1"><stop offset="0" stop-color="#f6f9fb"/><stop offset="1" stop-color="#dfe8ee"/></linearGradient>
  <linearGradient id="ovenGlass" x1="0" y1="0" x2="0" y2="1"><stop offset="0" stop-color="#2a2a2c"/><stop offset="1" stop-color="#151516"/></linearGradient>
  <radialGradient id="shadow"><stop offset="0" stop-color="#000" stop-opacity=".22"/><stop offset="1" stop-color="#000" stop-opacity="0"/></radialGradient>
  <radialGradient id="bulb"><stop offset="0" stop-color="#fff6e0"/><stop offset=".4" stop-color="#ffd68f" stop-opacity=".8"/><stop offset="1" stop-color="#ffd68f" stop-opacity="0"/></radialGradient>
  <pattern id="oakGrain" width="60" height="200" patternUnits="userSpaceOnUse">
    <rect width="60" height="200" fill="#c99a6a"/>
    <path d="M8 0 C12 60 4 120 9 200 M22 0 C18 70 26 140 21 200 M37 0 C41 50 33 130 38 200 M51 0 C47 80 55 150 50 200" stroke="#a77a4e" stroke-opacity=".28" stroke-width="1.4" fill="none"/>
  </pattern>
</defs><rect x="0" y="0" width="800" height="640" rx="0" fill="url(#wall)" /><rect x="0" y="640" width="800" height="360" rx="0" fill="url(#floor)" /><rect x="0" y="640" width="800" height="1.5" rx="0" fill="#a8865c" opacity=".35"/><rect x="0" y="640" width="1.5" height="42" rx="0" fill="#a8865c" opacity=".3"/><rect x="400" y="640" width="1.5" height="42" rx="0" fill="#a8865c" opacity=".3"/><rect x="0" y="682" width="800" height="1.5" rx="0" fill="#a8865c" opacity=".35"/><rect x="-173" y="682" width="1.5" height="42" rx="0" fill="#a8865c" opacity=".3"/><rect x="227" y="682" width="1.5" height="42" rx="0" fill="#a8865c" opacity=".3"/><rect x="627" y="682" width="1.5" height="42" rx="0" fill="#a8865c" opacity=".3"/><rect x="0" y="724" width="800" height="1.5" rx="0" fill="#a8865c" opacity=".35"/><rect x="-346" y="724" width="1.5" height="42" rx="0" fill="#a8865c" opacity=".3"/><rect x="54" y="724" width="1.5" height="42" rx="0" fill="#a8865c" opacity=".3"/><rect x="454" y="724" width="1.5" height="42" rx="0" fill="#a8865c" opacity=".3"/><rect x="0" y="766" width="800" height="1.5" rx="0" fill="#a8865c" opacity=".35"/><rect x="-119" y="766" width="1.5" height="42" rx="0" fill="#a8865c" opacity=".3"/><rect x="281" y="766" width="1.5" height="42" rx="0" fill="#a8865c" opacity=".3"/><rect x="681" y="766" width="1.5" height="42" rx="0" fill="#a8865c" opacity=".3"/><rect x="0" y="808" width="800" height="1.5" rx="0" fill="#a8865c" opacity=".35"/><rect x="-292" y="808" width="1.5" height="42" rx="0" fill="#a8865c" opacity=".3"/><rect x="108" y="808" width="1.5" height="42" rx="0" fill="#a8865c" opacity=".3"/><rect x="508" y="808" width="1.5" height="42" rx="0" fill="#a8865c" opacity=".3"/><rect x="0" y="850" width="800" height="1.5" rx="0" fill="#a8865c" opacity=".35"/><rect x="-65" y="850" width="1.5" height="42" rx="0" fill="#a8865c" opacity=".3"/><rect x="335" y="850" width="1.5" height="42" rx="0" fill="#a8865c" opacity=".3"/><rect x="735" y="850" width="1.5" height="42" rx="0" fill="#a8865c" opacity=".3"/><rect x="0" y="892" width="800" height="1.5" rx="0" fill="#a8865c" opacity=".35"/><rect x="-238" y="892" width="1.5" height="42" rx="0" fill="#a8865c" opacity=".3"/><rect x="162" y="892" width="1.5" height="42" rx="0" fill="#a8865c" opacity=".3"/><rect x="562" y="892" width="1.5" height="42" rx="0" fill="#a8865c" opacity=".3"/><rect x="0" y="934" width="800" height="1.5" rx="0" fill="#a8865c" opacity=".35"/><rect x="-11" y="934" width="1.5" height="42" rx="0" fill="#a8865c" opacity=".3"/><rect x="389" y="934" width="1.5" height="42" rx="0" fill="#a8865c" opacity=".3"/><rect x="789" y="934" width="1.5" height="42" rx="0" fill="#a8865c" opacity=".3"/><rect x="0" y="976" width="800" height="1.5" rx="0" fill="#a8865c" opacity=".35"/><rect x="-184" y="976" width="1.5" height="42" rx="0" fill="#a8865c" opacity=".3"/><rect x="216" y="976" width="1.5" height="42" rx="0" fill="#a8865c" opacity=".3"/><rect x="616" y="976" width="1.5" height="42" rx="0" fill="#a8865c" opacity=".3"/><g transform="translate(40 256.48) scale(0.68)"><rect x="0" y="0" width="860" height="180" rx="0" fill="#8f877c" /><rect x="1.5" y="1.5" width="137" height="177" rx="0" fill="#dcd6cb" /><rect x="1.5" y="1.5" width="137" height="2.5" rx="0" fill="#bdb5a8" /><rect x="141.5" y="1.5" width="137" height="177" rx="0" fill="#dcd6cb" /><rect x="141.5" y="1.5" width="137" height="2.5" rx="0" fill="#bdb5a8" /><rect x="281.5" y="1.5" width="197" height="177" rx="0" fill="#dcd6cb" /><rect x="281.5" y="1.5" width="197" height="2.5" rx="0" fill="#bdb5a8" /><rect x="481.5" y="1.5" width="137" height="177" rx="0" fill="#dcd6cb" /><rect x="481.5" y="1.5" width="137" height="2.5" rx="0" fill="#bdb5a8" /><rect x="621.5" y="1.5" width="117" height="177" rx="0" fill="#dcd6cb" /><rect x="621.5" y="1.5" width="117" height="2.5" rx="0" fill="#bdb5a8" /><rect x="741.5" y="1.5" width="117" height="177" rx="0" fill="#dcd6cb" /><rect x="741.5" y="1.5" width="117" height="2.5" rx="0" fill="#bdb5a8" /><rect x="0" y="180" width="860" height="170" rx="0" fill="url(#oakGrain)" /><rect x="0" y="184" width="860" height="130" rx="0" fill="url(#led)" /><rect x="6" y="180" width="848" height="4" rx="0" fill="#fff4dc" /><rect x="197" y="296" width="6" height="54" rx="2" fill="#bfc1c3" /><rect x="150" y="232" width="100" height="70" rx="7" fill="#3c3c3c" /><rect x="156" y="238" width="88" height="58" rx="2" fill="#fbfaf8" /><rect x="156" y="238" width="88" height="11" rx="2" fill="#e30613" /><rect x="164" y="256" width="60" height="3.5" rx="1.5" fill="#b4b0aa" /><rect x="164" y="265" width="48" height="3.5" rx="1.5" fill="#b4b0aa" /><rect x="164" y="274" width="66" height="3.5" rx="1.5" fill="#b4b0aa" /><rect x="164" y="283" width="40" height="3.5" rx="1.5" fill="#b4b0aa" /><rect x="180" y="349" width="40" height="2" rx="0" fill="#1b1b1c" /><rect x="356" y="280" width="8" height="70" rx="3" fill="#bfc1c3" /><rect x="334" y="280" width="30" height="8" rx="4" fill="#bfc1c3" /><rect x="592" y="314" width="36" height="36" rx="5" fill="#d9d0c3" /><circle cx="604" cy="302" r="16" fill="#5d7752"/><circle cx="620" cy="296" r="14" fill="#5d7752"/><circle cx="612" cy="284" r="13" fill="#5d7752"/><circle cx="598" cy="290" r="11" fill="#5d7752"/><rect x="752" y="296" width="24" height="54" rx="4" fill="#f1eee9" stroke="#cfc9be" stroke-width="1.5"/><circle cx="764" cy="310" r="6" fill="#e2ddd5"/><circle cx="761.5" cy="310" r="1.3" fill="#8f877c"/><circle cx="766.5" cy="310" r="1.3" fill="#8f877c"/><circle cx="764" cy="330" r="6" fill="#e2ddd5"/><circle cx="761.5" cy="330" r="1.3" fill="#8f877c"/><circle cx="766.5" cy="330" r="1.3" fill="#8f877c"/><rect x="-4" y="350" width="868" height="14" rx="0" fill="#eeebe5" /><rect x="-4" y="362" width="868" height="2" rx="0" fill="#d6d1c8" /><rect x="0" y="364" width="860" height="182" rx="0" fill="#8f877c" /><rect x="1.5" y="365.5" width="137" height="42.5" rx="0" fill="#dcd6cb" /><rect x="1.5" y="365.5" width="137" height="2.5" rx="0" fill="#bdb5a8" /><rect x="1.5" y="411" width="137" height="57.06" rx="0" fill="#dcd6cb" /><rect x="1.5" y="411" width="137" height="2.5" rx="0" fill="#bdb5a8" /><rect x="1.5" y="471.06" width="137" height="73.44" rx="0" fill="#dcd6cb" /><rect x="1.5" y="471.06" width="137" height="2.5" rx="0" fill="#bdb5a8" /><rect x="141.5" y="365.5" width="137" height="179" rx="0" fill="#dcd6cb" /><rect x="141.5" y="365.5" width="137" height="2.5" rx="0" fill="#bdb5a8" /><rect x="281.5" y="365.5" width="197" height="179" rx="0" fill="#dcd6cb" /><rect x="281.5" y="365.5" width="197" height="2.5" rx="0" fill="#bdb5a8" /><rect x="481.5" y="365.5" width="137" height="42.5" rx="0" fill="#dcd6cb" /><rect x="481.5" y="365.5" width="137" height="2.5" rx="0" fill="#bdb5a8" /><rect x="481.5" y="411" width="137" height="57.06" rx="0" fill="#dcd6cb" /><rect x="481.5" y="411" width="137" height="2.5" rx="0" fill="#bdb5a8" /><rect x="481.5" y="471.06" width="137" height="73.44" rx="0" fill="#dcd6cb" /><rect x="481.5" y="471.06" width="137" height="2.5" rx="0" fill="#bdb5a8" /><rect x="621.5" y="365.5" width="117" height="42.5" rx="0" fill="#dcd6cb" /><rect x="621.5" y="365.5" width="117" height="2.5" rx="0" fill="#bdb5a8" /><rect x="621.5" y="411" width="117" height="57.06" rx="0" fill="#dcd6cb" /><rect x="621.5" y="411" width="117" height="2.5" rx="0" fill="#bdb5a8" /><rect x="621.5" y="471.06" width="117" height="73.44" rx="0" fill="#dcd6cb" /><rect x="621.5" y="471.06" width="117" height="2.5" rx="0" fill="#bdb5a8" /><rect x="741.5" y="365.5" width="117" height="78.9" rx="0" fill="#dcd6cb" /><rect x="741.5" y="365.5" width="117" height="2.5" rx="0" fill="#bdb5a8" /><rect x="741.5" y="447.4" width="117" height="97.1" rx="0" fill="#dcd6cb" /><rect x="741.5" y="447.4" width="117" height="2.5" rx="0" fill="#bdb5a8" /><rect x="0" y="546" width="860" height="18" rx="0" fill="#34322f" /></g><g transform="translate(625 238.8) scale(0.68)"><rect x="0" y="0" width="180" height="572" rx="0" fill="#8f877c" /><rect x="1.5" y="1.5" width="87" height="207" rx="0" fill="#dcd6cb" /><rect x="4" y="214" width="82" height="118" rx="3" fill="url(#ovenGlass)" /><rect x="14" y="222" width="62" height="5" rx="2" fill="#bfc1c3" /><rect x="1.5" y="338.5" width="87" height="232" rx="0" fill="#dcd6cb" /><rect x="91.5" y="1.5" width="87" height="287" rx="0" fill="#dcd6cb" /><rect x="91.5" y="291.5" width="87" height="279" rx="0" fill="#dcd6cb" /><rect x="1.5" y="1.5" width="87" height="2.5" rx="0" fill="#bdb5a8" /><rect x="1.5" y="338.5" width="87" height="2.5" rx="0" fill="#bdb5a8" /><rect x="91.5" y="1.5" width="87" height="2.5" rx="0" fill="#bdb5a8" /><rect x="91.5" y="291.5" width="87" height="2.5" rx="0" fill="#bdb5a8" /><rect x="180" y="0" width="6" height="590" rx="0" fill="url(#oakGrain)" /><rect x="0" y="572" width="180" height="18" rx="0" fill="#34322f" /></g><g transform="translate(22 619.4) scale(0.74)"><ellipse cx="310" cy="192" rx="360" ry="16" fill="url(#shadow)"/><rect x="0" y="14" width="620" height="160" rx="0" fill="url(#oakGrain)" /><rect x="0" y="14" width="620" height="160" rx="0" fill="#000" opacity=".04"/><rect x="20" y="30" width="362" height="128" rx="3" fill="#2f3834" /><g fill="none" stroke-linecap="round" stroke-linejoin="round" stroke-width="2.6"><circle cx="58" cy="62" r="13" stroke="#f3d36b"/><path d="M58 40v-6M58 90v-6M36 62h-6M86 62h-6M42 46l-4-4M74 78l4 4M74 46l4-4M42 78l-4 4" stroke="#f3d36b"/><path d="M110 140v-38h46v38M104 104l29-24 29 24M126 140v-18h10v18" stroke="#f4f1ea"/><path d="M196 88c-8-8-4-18 4-15 8-3 12 7 4 15l-4 5z" stroke="#ef4a52"/><circle cx="236" cy="96" r="6" stroke="#9fd0f0"/><path d="M236 102v20M226 110h20M236 122l-7 12M236 122l7 12" stroke="#9fd0f0"/><circle cx="262" cy="100" r="6" stroke="#f2a7c3"/><path d="M262 106v18M253 113h18M262 124l-6 11M262 124l6 11" stroke="#f2a7c3"/><path d="M296 150a44 44 0 0 1 80 0" stroke="#ef4a52"/><path d="M304 150a36 36 0 0 1 64 0" stroke="#f3d36b"/><path d="M312 150a28 28 0 0 1 48 0" stroke="#7cc47f"/><path d="M320 150a20 20 0 0 1 32 0" stroke="#6aa8e8"/></g><text x="290" y="70" font-family="Chalkboard SE, Comic Sans MS, cursive" font-weight="700" font-size="22" fill="#f4f1ea" opacity=".9">KOJE</text><rect x="150" y="46" width="30" height="36" rx="1" fill="#e8e4dc" transform="rotate(5 165 64)"/><circle cx="165" cy="48" r="5" fill="#e30613"/><circle cx="98" cy="120" r="5" fill="#f3c13a"/><circle cx="342" cy="46" r="5" fill="#3f86d6"/><rect x="406" y="66" width="82" height="54" rx="2" fill="#e4ddd1" /><rect x="418" y="96" width="5" height="24" rx="2" fill="#e30613" /><rect x="430" y="92" width="5" height="28" rx="2" fill="#f3c13a" /><rect x="442" y="96" width="5" height="24" rx="2" fill="#3f86d6" /><rect x="454" y="92" width="5" height="28" rx="2" fill="#5aae62" /><rect x="466" y="96" width="5" height="24" rx="2" fill="#f08fb5" /><path d="M402 120 h90 l8 10 h-106 z" fill="#b48558"/><rect x="-8" y="0" width="636" height="14" rx="0" fill="#eeebe5" /><rect x="-8" y="12" width="636" height="2" rx="0" fill="#d6d1c8" /><path d="M96 0 a40 22 0 0 0 80 0 z" fill="#d9d0c3"/><circle cx="116" cy="-8" r="10" fill="#e48a2c"/><circle cx="136" cy="-12" r="10" fill="#e48a2c"/><circle cx="156" cy="-7" r="10" fill="#e48a2c"/><rect x="440" y="-6" width="90" height="6" rx="2" fill="#a77a4e" /><rect x="10" y="174" width="600" height="16" rx="0" fill="#34322f" /><rect x="498" y="174" width="104" height="16" rx="0" fill="#191817" /><rect x="500" y="174" width="100" height="2" rx="1" fill="#ffb36b" opacity=".9"/><rect x="506" y="172" width="92" height="22" rx="11" fill="#3c3c3c" /><rect x="512" y="173" width="80" height="5" rx="2.5" fill="#5a5a5a" /><circle cx="580" cy="183" r="2.4" fill="#52e0bf"/></g><g transform="translate(470 664) scale(0.92)"><ellipse cx="170" cy="300" rx="200" ry="14" fill="url(#shadow)"/><rect x="0" y="226" width="340" height="70" rx="4" fill="url(#oakGrain)" /><rect x="6" y="252" width="328" height="44" rx="3" fill="#a77a4e" opacity=".35"/><rect x="150" y="262" width="40" height="4" rx="2" fill="#7d5a38" /><rect x="10" y="294" width="320" height="6" rx="0" fill="#34322f" /><rect x="6" y="186" width="328" height="46" rx="18" fill="#cdbba5" /><rect x="14" y="90" width="150" height="110" rx="24" fill="#d8c8b4" /><rect x="176" y="90" width="150" height="110" rx="24" fill="#d8c8b4" /><rect x="24" y="118" width="82" height="68" rx="18" fill="#a88f78" transform="rotate(-8 65 152)"/><rect x="230" y="112" width="86" height="74" rx="18" fill="#c61d27" transform="rotate(7 273 149)"/><rect x="20" y="194" width="300" height="3" rx="1.5" fill="#ffffff" opacity=".35"/></g><g transform="translate(118 0) scale(0.8)"><line x1="35" y1="0" x2="35" y2="210" stroke="#34322f" stroke-width="2"/><path d="M-40 256 L110 256 L210 540 L-140 540 Z" fill="url(#cone)"/><circle cx="35" cy="254" r="34" fill="url(#bulb)"/><path d="M24 210 h22 l26 46 h-74 z" fill="#3c3c3c"/><ellipse cx="35" cy="256" rx="37" ry="4" fill="#2a2a2a"/></g><g transform="translate(300 0) scale(0.8)"><line x1="35" y1="0" x2="35" y2="210" stroke="#34322f" stroke-width="2"/><path d="M-40 256 L110 256 L210 540 L-140 540 Z" fill="url(#cone)"/><circle cx="35" cy="254" r="34" fill="url(#bulb)"/><path d="M24 210 h22 l26 46 h-74 z" fill="#3c3c3c"/><ellipse cx="35" cy="256" rx="37" ry="4" fill="#2a2a2a"/></g></svg>